<!-- Generated by text-to-svg.com -->
<svg xmlns="http://www.w3.org/2000/svg" viewBox="0 11.399999618530273 203.39999389648438 46.849998474121094" data-asc="0.935" width="203.39999389648438" height="46.849998474121094"><g fill="#ab6afb"><g transform="translate(0, 0)"><path d="M15.10 47.20Q10.80 47.20 7.38 45.25Q3.95 43.30 1.98 39.38Q0 35.45 0 29.65Q0 25.10 1.23 21.67Q2.45 18.25 4.65 15.95Q6.85 13.65 9.73 12.52Q12.60 11.40 15.90 11.40Q19.10 11.40 21.90 12.48Q24.70 13.55 26.80 15.72Q28.90 17.90 30.08 21.15Q31.25 24.40 31.25 28.70Q31.25 34.60 29.13 38.73Q27 42.85 23.35 45.02Q19.70 47.20 15.10 47.20M15.35 43.95Q18.45 43.95 21.08 42.38Q23.70 40.80 25.28 37.50Q26.85 34.20 26.85 28.95Q26.85 23.95 25.38 20.80Q23.90 17.65 21.38 16.15Q18.85 14.65 15.70 14.65Q12.65 14.65 10.08 16.17Q7.50 17.70 5.95 20.97Q4.40 24.25 4.40 29.50Q4.40 34.50 5.88 37.70Q7.35 40.90 9.83 42.42Q12.30 43.95 15.35 43.95ZM35.60 58.25L35.60 56.10L40.15 55.05L39.50 55.80L39.50 22.95L40.10 23.60L35.60 22.65L35.60 20.50L42.60 20.15L43.10 24.50L42.65 24.20Q44.95 22.05 47.25 20.97Q49.55 19.90 51.80 19.90Q54.60 19.90 56.83 21.45Q59.05 23 60.35 25.92Q61.65 28.85 61.65 33.10Q61.65 37.70 60.08 40.85Q58.50 44 55.65 45.63Q52.80 47.25 48.95 47.25Q47.55 47.25 46.05 47Q44.55 46.75 42.90 46.35L43.50 45.80L43.50 55.80L42.95 55.10L48.10 56.10L48.10 58.25L35.60 58.25M48.50 44.25Q52.90 44.25 55.20 41.40Q57.50 38.55 57.50 33.50Q57.50 30.20 56.58 27.85Q55.65 25.50 54.05 24.22Q52.45 22.95 50.40 22.95Q48.65 22.95 46.77 23.88Q44.90 24.80 43 26.70L43.50 25.45L43.50 44.20L42.95 43.30Q46 44.25 48.50 44.25ZM77.85 47.20Q74.50 47.20 71.92 45.67Q69.35 44.15 67.90 41.20Q66.45 38.25 66.45 34Q66.45 29.65 67.95 26.50Q69.45 23.35 72.20 21.63Q74.95 19.90 78.65 19.90Q82.15 19.90 84.42 21.38Q86.70 22.85 87.83 25.45Q88.95 28.05 88.95 31.40Q88.95 31.95 88.90 32.50Q88.85 33.05 88.75 33.85L69.50 33.85L69.50 31L85.25 31L84.80 31.30Q84.85 29.05 84.25 27.15Q83.65 25.25 82.20 24.10Q80.75 22.95 78.35 22.95Q75.80 22.95 74.05 24.30Q72.30 25.65 71.45 28Q70.60 30.35 70.60 33.45Q70.60 36.75 71.55 39.13Q72.50 41.50 74.33 42.80Q76.15 44.10 78.80 44.10Q80.65 44.10 82.85 43.38Q85.05 42.65 87.40 41.15L88.85 43.40Q86.05 45.30 83.25 46.25Q80.45 47.20 77.85 47.20ZM93.30 46.75L93.30 44.60L97.80 43.60L97.20 44.35L97.20 22.85L97.80 23.60L93.30 22.65L93.30 20.50L100.30 20.15L100.85 25.05L100.30 24.85Q102.80 22.30 105.53 21.10Q108.25 19.90 110.70 19.90Q114 19.90 116.18 21.92Q118.35 23.95 118.30 28.20L118.30 44.35L117.80 43.65L122.20 44.60L122.20 46.75L110.55 46.75L110.55 44.60L114.90 43.65L114.30 44.40L114.30 29.05Q114.30 25.95 112.90 24.50Q111.50 23.05 109.15 23.05Q107.30 23.05 105.13 24.05Q102.95 25.05 100.85 27.15L101.20 26.35L101.20 44.40L100.70 43.70L104.95 44.60L104.95 46.75L93.30 46.75ZM138.25 14L133.35 15.10L133.90 14.40L133.90 44.30L133.35 43.60L138.25 44.60L138.25 46.75L125.50 46.75L125.50 44.60L130.35 43.60L129.80 44.30L129.80 14.40L130.45 15.15L125.50 14.25L125.50 12.10L138.25 11.85L138.25 14ZM155.25 33.40L150.60 33.40L151.50 32.65L151.50 44.45L150.80 43.60L157 44.60L157 46.75L143.10 46.75L143.10 44.60L148.15 43.55L147.40 44.45L147.40 14.20L148.25 15.15L143.10 14.25L143.10 12.10L151.60 11.85L157.25 11.85Q161.10 11.85 163.60 13.15Q166.10 14.45 167.35 16.75Q168.60 19.05 168.60 22.10Q168.60 25.45 167.10 28Q165.60 30.55 162.63 31.98Q159.65 33.40 155.25 33.40M156.65 14.90L150.75 14.90L151.50 14.15L151.50 31.10L150.60 30.35L155.25 30.35Q159.65 30.35 162.03 28.15Q164.40 25.95 164.40 22.20Q164.40 18.80 162.43 16.85Q160.45 14.90 156.65 14.90ZM187.80 11.85Q191.15 11.85 193.98 12.88Q196.80 13.90 198.90 15.97Q201.00 18.05 202.20 21.22Q203.40 24.40 203.40 28.75Q203.40 34.65 201.28 38.65Q199.15 42.65 195.45 44.70Q191.75 46.75 187.00 46.75L172.90 46.75L172.90 44.60L177.90 43.55L177.20 44.45L177.20 14.25L177.90 15.20L172.90 14.25L172.90 12.10L182.30 11.85L187.80 11.85M187.15 43.70Q189.45 43.70 191.55 42.95Q193.65 42.20 195.35 40.52Q197.05 38.85 198.03 36.02Q199.00 33.20 199.00 29.10Q199.00 25.05 198.05 22.32Q197.10 19.60 195.50 17.97Q193.90 16.35 191.90 15.63Q189.90 14.90 187.70 14.90L180.55 14.90L181.30 14.15L181.30 44.45L180.55 43.70L187.15 43.70Z"/></g></g></svg>